Patient4_TMGait_0pt7_01_left_18_EMG.mot
version=1
nRows=37
nColumns=33
inDegrees=no
endheader
time	1LAddLong	2LGlutMax	3LGlutMed	4LIliopsoas	5LSemiMemb	6LBicFemLong	7LRecFem	8LVastMed	9LVastLat	10LGasMed	11LTibAnt	12lTibPost	13LPeroneusLong	14LSol	15LExtDigLong	16LFlexDigLong	17RAddLong	18RGlutMax	19RGlutMed	20RIliopsoas	21RSemiMemb	22RBicFemLong	23RRecFem	24RVastMed	25RVastLat	26RGasMed	27RTibAnt	28RTibPost	29RPeroneusLong	30RSol	31RExtDigLong	32RFlexDigLong
21.46	0.00824	0.18768	0.62882	0.02121	-0.000153	-0.010376	-0.2771	0.003967	-0.04364	-0.079651	0.016479	-0.036774	-0.091095	0.011749	0.003815	-0.040741	-0.023956	-0.37964	0.54459	0.006866	0.52628	-0.096283	0.02182	-0.096893	-0.25345	-0.03891	0.022278	-0.007477	0.029755	-0.046997	0.002899	-0.012054
21.461	0.005951	0.21332	0.62805	0.018616	-0.014191	-0.020905	-0.28458	0.000763	-0.014191	-0.085449	0.01297	-0.016022	-0.072632	0.0914	0.019531	0.024109	0.040894	-0.48218	0.38711	0.002899	0.6221	-0.14648	-0.014954	-0.088348	-0.051575	0.006409	0.029602	-0.005035	0.010376	-0.055542	0.00351	-0.00946
21.462	0.010681	0.23239	0.73685	0.003052	-0.04776	-0.032654	-0.27817	-0.000916	-0.029602	-0.11765	0.009155	0.012817	0.019684	0.1738	0.046082	0.16281	0.17761	-0.43716	0.35492	0.004272	0.45944	-0.28503	0.11078	-0.40832	0.062714	0.007324	0.033417	-0.003815	0.055237	-0.029755	0.014191	-0.001526
21.463	0.015869	0.15717	0.77652	-0.00061	-0.079498	-0.032806	-0.25345	0.000153	-0.035095	-0.11383	0.001373	0.033417	-0.018616	0.13199	0.043945	0.083466	0.26672	-0.3894	0.17319	0.030823	0.27283	-0.28961	0.20065	-0.7634	0.19073	-0.011139	0.027771	-0.000153	0.15549	-0.01709	0.004578	-0.00412
21.464	0.012207	0.14465	0.77866	-0.017395	0.006256	-0.13138	-0.21744	0.00061	-0.047913	-0.081024	0.001678	0.014801	0.012817	0.1355	0.031128	0.008698	0.22415	-0.33524	0.14938	0.012054	-0.098267	-0.001373	0.14358	-0.97031	0.21423	-0.008545	0.033569	-0.010223	0.17029	-0.050507	0.000305	-0.000458
21.465	0.010834	0.13504	0.7254	-0.006104	0.063629	-0.079041	-0.23361	-0.001678	-0.035858	-0.048523	0.002747	0.002441	0.025635	0.093079	0.018921	-0.01236	0.054932	-0.39825	0.073853	-0.041962	-0.38742	0.36926	-0.003662	-0.69504	0.31632	-0.009155	0.017395	-0.005035	0.21072	-0.046387	0.000763	0.008087
21.466	0.013733	0.12405	0.74783	0	0.055847	0.037994	-0.22797	-0.003662	-0.036316	-0.058136	0.008087	-0.005188	0.076904	0.14313	0.016174	0.027618	-0.11856	-0.40085	-0.11444	-0.012817	0.35355	0.46387	-0.28839	0.034485	0.44601	-0.010681	0.046692	-0.002136	0.30029	-0.063629	-0.001221	0.000153
21.467	0.005798	0.1294	0.76752	0.000763	0.034943	0.090485	-0.20386	0.005798	-0.039215	-0.12955	0.014954	0.006104	-0.044403	0.18249	0.019226	0.028839	-0.16144	-0.42099	-0.21866	-0.0177	1.1116	0.39658	-0.45349	0.4602	0.45471	-0.011597	0.075989	-0.007019	0.26489	-0.059662	-0.003662	-0.003967
21.468	0.009155	0.11765	0.79056	0.010834	0.010071	0.10223	-0.24277	-0.005341	-0.024109	-0.21759	0.003967	-0.012665	-0.18433	0.18127	0.044708	0.013885	-0.072937	-0.35187	-0.26077	-0.05127	1.2515	0.23682	-0.36423	0.35004	0.31418	-0.010223	0.068665	-0.00946	-0.029449	-0.10986	-0.001831	-0.001831
21.469	0.005035	0.11093	0.80185	0.000916	-0.019226	0.13702	-0.22812	0.004883	-0.022125	-0.35034	-0.001678	-0.22675	0.19486	0.12039	0.061646	0.019073	-0.052032	-0.19974	-0.57266	0.066986	0.86929	0.15228	-0.08667	0.069885	0.44006	-0.004578	0.025024	-0.002594	-0.12116	-0.067749	0.001831	-0.005493
21.47	0.002747	0.076141	0.82718	0.01297	-0.021667	0.078125	-0.22964	-0.003357	-0.02655	-0.33295	0.008698	-0.058594	0.11871	0.2475	0.061493	0.029144	-0.011749	-0.064392	-0.94055	0.12405	0.60318	0.14801	0.011292	-0.13092	1.0564	-0.000153	0.056915	-0.007477	-0.3656	-0.049438	-0.00061	0.000458
21.471	0.00885	0.10254	0.82535	0.010223	-0.021973	0.02594	-0.21881	0.006714	-0.02594	0.14252	0.017395	0.050659	-0.37033	0.70343	0.041199	0.004578	-0.037079	-0.035248	-1.2555	0.054169	0.57556	0.11154	-0.098114	0.19073	1.1273	-0.005798	0.048523	-0.010681	-0.25253	-0.07019	0.001831	-0.009613
21.472	0.009308	0.1149	0.81909	-0.00061	-0.006866	-0.014343	-0.22156	-0.000458	-0.026703	0.81772	0.005493	0.23727	-0.17731	1.104	0.023346	-0.088654	-0.048981	-0.028229	-0.60806	-0.037231	0.53787	0.083313	-0.14221	0.62515	0.79437	-0.004272	0.085449	-0.010681	0.098419	-0.11032	-0.000305	-0.010071
21.473	0.009918	0.079651	0.83145	0.006561	0.000305	-0.039368	-0.21378	0.000153	-0.02121	0.67688	0.002136	-0.20401	0.051575	0.74432	0.044556	-0.10544	-0.051727	-0.19852	0.5423	-0.033417	0.52994	0.065918	-0.086975	1.0228	0.28656	-0.013123	0.10208	-0.018311	0.39459	-0.1236	0.000916	-0.011292
21.474	0.013733	0.084381	0.83603	0.010529	0.019836	-0.10346	-0.22049	-0.001526	-0.014496	0.23865	-0.009918	-0.10788	0.10941	0.33783	0.032349	-0.12238	-0.00946	-0.32974	1.2607	0.031891	0.52383	0.072937	0.10513	0.79437	-0.080719	-0.009003	0.096436	-0.009003	-0.2417	-0.10284	0.000458	-0.00946
21.475	0.023499	0.045166	0.83038	0.016174	0.031281	-0.12619	-0.23499	-0.007629	-0.02243	0.56839	-0.007629	0.31357	0.12543	-0.36804	-0.031891	0.056305	-0.020905	-0.44464	0.60684	0.072021	0.56259	0.16876	-0.016632	0.81009	-0.24124	0.000153	0.02243	-0.016785	-0.7254	-0.083008	-0.000458	-0.011597
21.476	0.018463	-0.02533	0.81573	0.0177	0.035553	-0.13092	-0.20142	-0.002441	-0.019073	0.37247	-0.009003	-0.02243	0.1265	-0.22812	-0.044861	0.065918	-0.043793	-0.4689	0.030823	0.030212	0.52124	0.28412	-0.51529	0.52353	-0.38223	-0.002441	-0.071869	-0.018921	0.1178	-0.049286	0.005951	-0.009155
21.477	0.020447	0.031433	0.8577	-0.000153	0.040436	-0.077667	-0.19211	-0.002594	-0.027466	0.3418	0.007477	0.043945	0.065765	-0.27084	-0.079346	0.036469	0.007324	-0.28778	0.30136	-0.07782	0.31296	0.35324	-0.78613	0.1506	-0.55786	-0.014496	-0.014038	0.022888	0.20142	0.006866	0.002594	-0.010376
21.478	0.019073	0.033569	0.86182	-0.020142	0.033417	-0.093384	-0.17838	-0.00351	-0.011139	0.14648	0.016632	0.027466	0.13336	-0.47394	-0.070496	0.14938	0.050354	0.070801	0.62302	-0.18265	0.17242	0.3743	-0.45975	-0.20798	-0.72464	-0.005341	-0.005188	0.041809	0.031128	-0.023041	0.003967	-0.003357
21.479	0.014954	0.10727	0.85892	-0.002441	0.01358	-0.057831	-0.16586	0.000153	-0.023041	-0.028381	0.001526	-0.023651	-0.057068	-0.44662	-0.057068	0.1207	0.074921	0.17166	1.0344	-0.15854	0.46448	0.30472	0.010834	-0.91507	-0.74158	-0.025024	-0.046539	-0.011139	0.073395	-0.21729	0.000763	0.010681
21.48	0.017548	0.10254	0.86472	0.023346	-0.015869	-0.00946	-0.18036	-0.002899	-0.008392	-0.2417	0.005188	-0.034027	-0.095825	-0.16174	-0.065002	0.046997	0.10269	0.26367	0.72128	-0.005646	0.35248	0.34134	0.12573	-1.0263	-0.46432	-0.022736	-0.022583	-0.026398	0.13962	-0.16861	-0.003967	0.010376
21.481	0.010986	0.036163	0.84381	0.0177	-0.042877	0.034485	-0.18021	0.003204	-0.019836	-0.31708	0.006409	-0.022888	-0.096436	0.032654	-0.014191	0.000305	0.13001	0.12329	0.50964	0.17777	0.15564	0.28198	-0.098572	-0.81284	-0.11444	-0.015564	0.00946	-0.009613	0.24445	-0.075836	0	0.008545
21.482	0.014954	0.07431	0.86212	0.005798	-0.047913	0.048523	-0.15915	-0.000916	-0.010529	-0.513	0.001678	-0.017548	0.052032	-0.23972	-0.019073	0.010071	0.14145	0.16602	-0.24704	0.22324	0.006866	0.30411	-0.41458	-0.47836	0.19379	-0.016174	0.011139	-0.011749	0.28534	-0.097198	0.000153	0.007019
21.483	0.020294	0.035095	0.89142	0.024567	-0.022736	0.015717	-0.16388	-0.002289	0.007019	-0.48492	0.01236	-0.010681	0.056	-0.31952	-0.019226	-0.018921	0.098877	0.17578	-0.18662	0.053558	0.29098	0.38727	-0.59387	-0.15366	0.40848	-0.013275	-0.024109	-0.012054	0.22492	-0.060425	-0.001984	0.008087
21.484	0.018616	0.029144	0.84701	0.024719	-0.00824	-0.005341	-0.15915	-0.008545	0.007477	-0.41672	0.015411	-0.031281	-0.063324	-0.16647	-0.005646	-0.072937	0.016937	0.095062	-0.27924	-0.019226	0.42954	0.46539	-0.51041	-0.006409	1.0588	-0.011749	-0.052338	-0.005951	0.13702	-0.061188	0.001068	0.005188
21.485	0.018311	0.06897	0.85083	-0.004883	-0.021515	-0.034637	-0.13153	-0.000153	-0.006714	-0.50384	-0.001526	-0.001984	0.47821	-0.26688	-0.041809	-0.016479	-0.078125	-0.020447	-0.35065	-0.004883	0.24216	0.466	-0.35751	-0.091553	1.254	-0.001678	-0.00885	-0.009766	-0.054932	-0.080414	-0.000153	0.011444
21.486	0.020294	0.048523	0.84686	-0.000458	-0.026398	-0.072174	-0.11612	-0.00473	-0.010376	-0.50827	-0.011444	0.091553	0.06546	-0.30258	-0.030518	-0.005646	-0.092468	-0.17029	-0.27161	-0.005493	0.36591	0.55054	-0.32577	-0.10071	0.89691	-0.007935	0.030365	-0.001526	-0.22995	-0.10223	0.002747	0.007782
21.487	0.018921	0.02533	0.84656	0.013885	-0.012207	-0.091705	-0.089874	0.001678	-0.016937	-0.34363	-0.007629	-0.18204	-0.31326	-0.32654	-0.039063	-0.64896	-0.15839	-0.34897	0.34653	0.002441	0.57892	0.53375	-0.31265	-0.10208	0.62485	-0.011597	0.027466	-0.00412	-0.13458	-0.10803	-0.001373	0.009308
21.488	0.016632	-0.022736	0.84	-0.000458	-0.010681	-0.044403	-0.066223	0.002899	-0.019531	-0.24216	0.019989	0.23773	-0.079041	0.041809	0.057068	0.33905	-0.074768	-0.48798	0.35446	-0.14023	0.5217	0.30151	-0.24735	-0.32272	0.53162	-0.012207	-0.007172	-0.008698	-0.010529	-0.11093	0.000916	0.005493
21.489	0.010376	0.010986	0.84732	0.010681	-0.010071	-0.035553	-0.058289	0.000305	-0.027771	-0.031738	0.009308	0.14267	0.10437	0.036926	0.056305	1.1632	0.032959	-0.53833	-0.080719	-0.065918	0.24078	0.14236	-0.17532	-0.34027	0.056763	-0.020142	-0.026093	-0.00412	-0.000763	-0.16296	0.003662	-0.007324
21.49	0.003967	0.023193	0.80383	0.010376	0.004883	-0.058289	-0.063629	0.001526	-0.021667	0.36377	0.003815	-0.121	0.028687	0.098724	-0.005493	-0.63461	0.046844	-0.46402	-0.97046	0.070801	0.19836	0.19394	0.005188	-0.31967	-0.46356	-0.019531	-0.007324	-0.005341	-0.012665	-0.13092	0.002136	-0.003967
21.491	0.005035	0.014801	0.77957	0.03006	0.029907	0.058746	-0.070038	-0.002289	-0.023651	0.40741	0.007172	-0.12604	0.010986	0.22903	0	-0.13336	0.099792	-0.52307	-1.7184	0.078278	0.46753	0.30548	0.383	-0.25192	-0.90271	-0.016327	-0.036774	-0.008087	0.019073	-0.11353	0.006714	-0.008545
21.492	-0.000153	0.014648	0.74448	0.01358	0.027924	0.093689	-0.06897	0.009308	-0.025787	0.2121	0.011139	-0.083466	0.11749	0.57251	-0.015106	-0.23819	0.054626	-0.32684	-1.3812	-0.033112	0.29495	0.5835	0.55161	0.6105	-0.86838	-0.015259	-0.04364	0.000305	0.021515	-0.006561	0.002747	-0.004578
21.493	-0.004272	0.001373	0.78186	-0.008392	0.028381	-0.00351	-0.067139	0.014038	-0.022278	0.038452	0.001831	0.087738	0.10422	0.61706	0.005493	0.43198	0.00351	-0.19058	-0.8342	-0.041962	-0.088348	0.74585	0.55237	1.4764	-0.1796	-0.012665	-0.028381	-0.007477	-0.12161	0.038757	0.001068	-0.00412
21.494	-0.01297	-0.019836	0.8078	0.013428	0.014954	-0.087585	-0.05188	0.001526	-0.028076	-0.021515	0.012207	-0.045624	-0.010376	0.48508	0.025635	-0.067139	0.00946	-0.26352	-0.13931	-0.008698	-0.054016	0.7608	0.64041	1.3582	-0.12009	-0.011902	0.011749	-0.006104	-0.26382	-0.006866	-0.001068	0.001373
21.495	0.011292	-0.030365	0.75958	0.010529	0.000305	-0.079956	-0.053558	-0.004578	-0.02655	0.048523	0.013733	-0.019989	-0.23285	0.090485	0.028381	-0.010834	0.056152	-0.25528	0.39871	-0.002136	-0.18692	0.71213	1.0399	0.83618	-0.27863	-0.021515	0.10971	-0.003815	-0.25696	-0.012512	0.001221	-0.00412
21.496	0.009918	-0.062103	0.74982	-0.001984	-0.058136	-0.016937	-0.055542	0.007172	-0.025024	0.060425	0.01297	-0.017242	-0.39337	-0.18402	-0.059052	0.053101	-0.055847	-0.38788	0.45075	-0.048523	-0.33691	0.81757	0.93994	0.20142	-0.33218	-0.027161	0.2298	-0.010681	0.032501	-0.02533	0.000305	-0.007324
